<svg xmlns="http://www.w3.org/2000/svg" width="1200" height="1500" viewBox="0 0 1200 1500">
  <defs>
    
  <filter id="g" x="0" y="0" width="100%" height="100%">
    <feTurbulence type="fractalNoise" baseFrequency="0.8" numOctaves="2" stitchTiles="stitch"/>
    <feColorMatrix type="saturate" values="0"/>
    <feComponentTransfer><feFuncA type="linear" slope="0.5"/></feComponentTransfer>
    <feComposite operator="over" in2="SourceGraphic"/>
  </filter>
    <radialGradient id="wash" cx="0.8" cy="0.15" r="1">
      <stop offset="0" stop-color="rgba(196,80,44,0.10)"/>
      <stop offset="1" stop-color="rgba(0,0,0,0)"/>
    </radialGradient>
  </defs>
  <rect width="1200" height="1500" fill="#EDE8DF"/>
  <rect width="1200" height="1500" fill="url(#wash)"/>
  
  <circle cx="600" cy="630" r="408.00000000000006" fill="none" stroke="rgba(17,17,16,0.18)" stroke-width="1.25"/>
  <circle cx="600" cy="630" r="528" fill="none" stroke="rgba(17,17,16,0.18)" stroke-width="1.25" stroke-dasharray="2 7"/>
  <line x1="0" y1="1370" x2="1200" y2="1370" stroke="rgba(17,17,16,0.12)" stroke-width="1.5"/>
  <circle cx="1008" cy="630" r="26" fill="#C4502C"/>
  <g><line x1="1090" y1="108" x2="1120" y2="108" stroke="#C4502C" stroke-width="3" stroke-linecap="round"/><line x1="1090" y1="108" x2="1111.2132034355964" y2="129.21320343559643" stroke="#C4502C" stroke-width="3" stroke-linecap="round"/><line x1="1090" y1="108" x2="1090" y2="138" stroke="#C4502C" stroke-width="3" stroke-linecap="round"/><line x1="1090" y1="108" x2="1068.7867965644036" y2="129.21320343559643" stroke="#C4502C" stroke-width="3" stroke-linecap="round"/><line x1="1090" y1="108" x2="1060" y2="108" stroke="#C4502C" stroke-width="3" stroke-linecap="round"/><line x1="1090" y1="108" x2="1068.7867965644036" y2="86.78679656440357" stroke="#C4502C" stroke-width="3" stroke-linecap="round"/><line x1="1090" y1="108" x2="1090" y2="78" stroke="#C4502C" stroke-width="3" stroke-linecap="round"/><line x1="1090" y1="108" x2="1111.2132034355964" y2="86.78679656440357" stroke="#C4502C" stroke-width="3" stroke-linecap="round"/><circle cx="1090" cy="108" r="6.6" fill="#C4502C"/></g>
  <text x="72" y="96" font-family="'Helvetica Neue', Arial, sans-serif" font-size="20" letter-spacing="3.5" fill="rgba(112,106,97,0.95)">( WORK ) — TEMPLSTUDIO ©</text>
  <text x="72" y="1422" font-family="'Helvetica Neue', Arial, sans-serif" font-size="20" letter-spacing="3.5" fill="rgba(112,106,97,0.95)">GOLDEN HOUR MED SPA ©</text>
  <text x="600" y="786" text-anchor="middle" font-family="Georgia, 'Times New Roman', serif" font-style="italic"
    font-size="504" fill="none" stroke="rgba(17,17,16,0.85)" stroke-width="2.5">G.</text>
  <rect width="1200" height="1500" filter="url(#g)" opacity="0.05"/>
</svg>