<svg xmlns="http://www.w3.org/2000/svg" width="1600" height="1000" viewBox="0 0 1600 1000">
  <defs>
    
  <filter id="g" x="0" y="0" width="100%" height="100%">
    <feTurbulence type="fractalNoise" baseFrequency="0.8" numOctaves="2" stitchTiles="stitch"/>
    <feColorMatrix type="saturate" values="0"/>
    <feComponentTransfer><feFuncA type="linear" slope="0.5"/></feComponentTransfer>
    <feComposite operator="over" in2="SourceGraphic"/>
  </filter>
    <radialGradient id="wash" cx="0.8" cy="0.15" r="1">
      <stop offset="0" stop-color="rgba(196,80,44,0.10)"/>
      <stop offset="1" stop-color="rgba(0,0,0,0)"/>
    </radialGradient>
  </defs>
  <rect width="1600" height="1000" fill="#EDE8DF"/>
  <rect width="1600" height="1000" fill="url(#wash)"/>
  <circle cx="1280" cy="500" r="330" fill="none" stroke="rgba(17,17,16,0.18)" stroke-width="1.25"/><circle cx="1280" cy="500" r="240" fill="none" stroke="rgba(17,17,16,0.18)" stroke-width="1.25" stroke-dasharray="2 7"/>
        <circle cx="1280" cy="170" r="28" fill="#C4502C"/>
        <line x1="90" y1="330" x2="900" y2="330" stroke="rgba(17,17,16,0.12)" stroke-width="1.5"/>
        <line x1="90" y1="500" x2="820" y2="500" stroke="rgba(17,17,16,0.12)" stroke-width="1.5"/>
        <line x1="90" y1="670" x2="880" y2="670" stroke="rgba(17,17,16,0.12)" stroke-width="1.5"/>
        <g><line x1="150" y1="830" x2="180" y2="830" stroke="#C4502C" stroke-width="3" stroke-linecap="round"/><line x1="150" y1="830" x2="171.21320343559643" y2="851.2132034355964" stroke="#C4502C" stroke-width="3" stroke-linecap="round"/><line x1="150" y1="830" x2="150" y2="860" stroke="#C4502C" stroke-width="3" stroke-linecap="round"/><line x1="150" y1="830" x2="128.78679656440357" y2="851.2132034355964" stroke="#C4502C" stroke-width="3" stroke-linecap="round"/><line x1="150" y1="830" x2="120" y2="830" stroke="#C4502C" stroke-width="3" stroke-linecap="round"/><line x1="150" y1="830" x2="128.78679656440357" y2="808.7867965644036" stroke="#C4502C" stroke-width="3" stroke-linecap="round"/><line x1="150" y1="830" x2="150" y2="800" stroke="#C4502C" stroke-width="3" stroke-linecap="round"/><line x1="150" y1="830" x2="171.21320343559643" y2="808.7867965644035" stroke="#C4502C" stroke-width="3" stroke-linecap="round"/><circle cx="150" cy="830" r="6.6" fill="#C4502C"/></g>
      <text x="90" y="120" font-family="'Helvetica Neue', Arial, sans-serif" font-size="22" letter-spacing="3.5" fill="rgba(112,106,97,0.95)">( 01 ) — BRAND IDENTITY ©</text>
  <rect width="1600" height="1000" filter="url(#g)" opacity="0.05"/>
</svg>