<svg xmlns="http://www.w3.org/2000/svg" width="640" height="800" viewBox="0 0 640 800">
  <defs>
    
  <filter id="g" x="0" y="0" width="100%" height="100%">
    <feTurbulence type="fractalNoise" baseFrequency="0.8" numOctaves="2" stitchTiles="stitch"/>
    <feColorMatrix type="saturate" values="0"/>
    <feComponentTransfer><feFuncA type="linear" slope="0.5"/></feComponentTransfer>
    <feComposite operator="over" in2="SourceGraphic"/>
  </filter>
    <radialGradient id="wash" cx="0.8" cy="0.15" r="1">
      <stop offset="0" stop-color="rgba(23,21,17,0.18)"/>
      <stop offset="1" stop-color="rgba(0,0,0,0)"/>
    </radialGradient>
  </defs>
  <rect width="640" height="800" fill="#C4502C"/>
  <rect width="640" height="800" fill="url(#wash)"/>
  
  <circle cx="560" cy="130" r="260" fill="none" stroke="rgba(242,239,233,0.35)" stroke-width="1.25"/>
  <circle cx="560" cy="130" r="175" fill="none" stroke="rgba(242,239,233,0.35)" stroke-width="1.25" stroke-dasharray="2 7"/>
  <line x1="0" y1="668" x2="640" y2="668" stroke="rgba(242,239,233,0.22)" stroke-width="1.25"/>
  <line x1="46" y1="0" x2="46" y2="800" stroke="rgba(242,239,233,0.22)" stroke-width="1.25"/>
  <circle cx="560" cy="130" r="34" fill="#171511"/>
  <g><line x1="90" y1="585" x2="116" y2="585" stroke="#171511" stroke-width="3" stroke-linecap="round"/><line x1="90" y1="585" x2="108.38477631085024" y2="603.3847763108503" stroke="#171511" stroke-width="3" stroke-linecap="round"/><line x1="90" y1="585" x2="90" y2="611" stroke="#171511" stroke-width="3" stroke-linecap="round"/><line x1="90" y1="585" x2="71.61522368914976" y2="603.3847763108503" stroke="#171511" stroke-width="3" stroke-linecap="round"/><line x1="90" y1="585" x2="64" y2="585" stroke="#171511" stroke-width="3" stroke-linecap="round"/><line x1="90" y1="585" x2="71.61522368914976" y2="566.6152236891497" stroke="#171511" stroke-width="3" stroke-linecap="round"/><line x1="90" y1="585" x2="90" y2="559" stroke="#171511" stroke-width="3" stroke-linecap="round"/><line x1="90" y1="585" x2="108.38477631085023" y2="566.6152236891497" stroke="#171511" stroke-width="3" stroke-linecap="round"/><circle cx="90" cy="585" r="5.72" fill="#171511"/></g>
  <text x="66" y="78" font-family="'Helvetica Neue', Arial, sans-serif" font-size="17" letter-spacing="3.5" fill="rgba(242,239,233,0.85)">( 03 ) — TEMPLSTUDIO ©</text>
  <text x="60" y="640" font-family="Georgia, 'Times New Roman', serif" font-style="italic" font-size="300"
    fill="none" stroke="rgba(242,239,233,0.92)" stroke-width="2">03</text>
  <rect width="640" height="800" filter="url(#g)" opacity="0.05"/>
</svg>