<svg xmlns="http://www.w3.org/2000/svg" width="640" height="800" viewBox="0 0 640 800">
  <defs>
    <linearGradient id="a16167bg" x1="0" y1="0" x2="0.35" y2="1">
      <stop offset="0" stop-color="#18332a"/>
      <stop offset="1" stop-color="#0d1c17"/>
    </linearGradient>
    <radialGradient id="a16167key">
      <stop offset="0" stop-color="#5e775e" stop-opacity="0.85"/>
      <stop offset="0.45" stop-color="#5e775e" stop-opacity="0.28"/>
      <stop offset="1" stop-color="#5e775e" stop-opacity="0"/>
    </radialGradient>
    <radialGradient id="a16167wash">
      <stop offset="0" stop-color="#ba9b5f" stop-opacity="0.4"/>
      <stop offset="1" stop-color="#ba9b5f" stop-opacity="0"/>
    </radialGradient>
    <radialGradient id="a16167dotmask">
      <stop offset="0" stop-color="#fff" stop-opacity="0.9"/>
      <stop offset="1" stop-color="#fff" stop-opacity="0"/>
    </radialGradient>
    <mask id="a16167dm">
      <rect width="640" height="800" fill="url(#a16167dotmask)"/>
    </mask>
    <pattern id="a16167dots" width="7" height="7" patternUnits="userSpaceOnUse">
      <circle cx="3.5" cy="3.5" r="1.19" fill="#5e775e" fill-opacity="0.5"/>
    </pattern>
    <linearGradient id="a16167vig" x1="0" y1="0" x2="0" y2="1">
      <stop offset="0" stop-color="#000" stop-opacity="0.4"/>
      <stop offset="0.45" stop-color="#000" stop-opacity="0"/>
      <stop offset="1" stop-color="#000" stop-opacity="0.55"/>
    </linearGradient>
    <filter id="a16167grain" x="0" y="0" width="100%" height="100%">
      <feTurbulence type="fractalNoise" baseFrequency="0.9" numOctaves="2" seed="66" result="n"/>
      <feColorMatrix in="n" type="saturate" values="0"/>
    </filter>
  </defs>

  <rect width="640" height="800" fill="url(#a16167bg)"/>
  <circle cx="320" cy="319" r="352" fill="url(#a16167key)"/>
  <circle cx="77" cy="486" r="422" fill="url(#a16167wash)"/>
  <g mask="url(#a16167dm)">
    <rect width="640" height="800" fill="url(#a16167dots)"/>
  </g>
  <circle cx="704" cy="602" r="377" fill="none"
          stroke="#ba9b5f" stroke-opacity="0.35" stroke-width="2.1"/>

  <g>
    <path d="M-58 800
             C-58 597
              83 532
              240 524
             C398 532
              538 597
              538 800Z" fill="#08130f" fill-opacity="0.9"/>
    <ellipse cx="240" cy="370" rx="108" ry="126" fill="#08130f" fill-opacity="0.9"/>
    <path d="M141 291
             A108 126 0 0 0 173 476"
          fill="none" stroke="#5e775e" stroke-opacity="0.8" stroke-width="6.0" stroke-linecap="round"/>
  </g>

  <rect width="640" height="800" fill="url(#a16167vig)"/>
  <g opacity="0.14" filter="url(#a16167grain)">
    <rect width="640" height="800"/>
  </g>
  <g stroke="#e9e0cf" stroke-opacity="0.4" stroke-width="1.8823529411764706" fill="none">
    <path d="M14 28V14H28"/>
    <path d="M612 14H626V28"/>
    <path d="M14 772V786H28"/>
    <path d="M612 786H626V772"/>
  </g>
  <text x="14" y="784.6" font-family="'Helvetica Neue', Arial, sans-serif" font-size="25" letter-spacing="1.6" fill="#e9e0cf" fill-opacity="0.55">01</text>
</svg>
