<svg xmlns="http://www.w3.org/2000/svg" width="720" height="960" viewBox="0 0 720 960">
  <defs>
    <linearGradient id="wall" x1="0" y1="0" x2="0.25" y2="1">
      <stop offset="0" stop-color="#8d918a"/>
      <stop offset="0.55" stop-color="#4c5049"/>
      <stop offset="1" stop-color="#1e201c"/>
    </linearGradient>
    <linearGradient id="floor" x1="0" y1="0" x2="0" y2="1">
      <stop offset="0" stop-color="#000000" stop-opacity="0.22"/>
      <stop offset="1" stop-color="#000000" stop-opacity="0.5"/>
    </linearGradient>
    <radialGradient id="key">
      <stop offset="0" stop-color="#ffffff" stop-opacity="0.62"/>
      <stop offset="0.45" stop-color="#ffffff" stop-opacity="0.2"/>
      <stop offset="1" stop-color="#ffffff" stop-opacity="0"/>
    </radialGradient>
    <radialGradient id="rim">
      <stop offset="0" stop-color="#ecfdad" stop-opacity="0.34"/>
      <stop offset="1" stop-color="#ecfdad" stop-opacity="0"/>
    </radialGradient>
    <radialGradient id="kiss">
      <stop offset="0" stop-color="#3fae86" stop-opacity="0.3"/>
      <stop offset="1" stop-color="#3fae86" stop-opacity="0"/>
    </radialGradient>
    <linearGradient id="subject" x1="0" y1="0" x2="0.35" y2="1">
      <stop offset="0" stop-color="#000000" stop-opacity="0.24"/>
      <stop offset="1" stop-color="#000000" stop-opacity="0.5"/>
    </linearGradient>
    <linearGradient id="vig" x1="0" y1="0" x2="0" y2="1">
      <stop offset="0" stop-color="#000000" stop-opacity="0.2"/>
      <stop offset="0.42" stop-color="#000000" stop-opacity="0"/>
      <stop offset="1" stop-color="#000000" stop-opacity="0.34"/>
    </linearGradient>
    <pattern id="grain" width="65" height="65" patternUnits="userSpaceOnUse" patternTransform="rotate(-13.7)">
      <path d="M0 0H65M0 0V65" stroke="#ffffff" stroke-opacity="0.045" stroke-width="1"/>
    </pattern>
  </defs>

  <rect width="720" height="960" fill="url(#wall)"/>
  <circle cx="188" cy="210" r="363" fill="url(#key)"/>
  <circle cx="634" cy="595" r="254" fill="url(#rim)"/>
  <circle cx="532" cy="749" r="200" fill="url(#kiss)"/>
  <rect y="615" width="720" height="345" fill="url(#floor)"/>
  <path d="M0 615H720" stroke="#ffffff" stroke-opacity="0.12" stroke-width="1.5"/>

  <g fill="url(#subject)">
    <ellipse cx="310" cy="381" rx="112" ry="137"/>
    <path d="M-128 960
             C-128 549
              159 549
              310 540
             C462 549
              749 549
              749 960Z"/>
  </g>

  <rect width="720" height="960" fill="url(#grain)"/>
  <rect width="720" height="960" fill="url(#vig)"/>
</svg>
