<svg xmlns="http://www.w3.org/2000/svg" viewBox="0 0 512 512" width="512" height="512">
  <defs>
  <linearGradient id="sheen" x1="0" y1="0" x2="0.15" y2="1">
    <stop offset="0" stop-color="#ffffff"/>
    <stop offset="0.16" stop-color="#dfe3e8"/>
    <stop offset="0.34" stop-color="#9aa0a8"/>
    <stop offset="0.46" stop-color="#4e5359"/>
    <stop offset="0.55" stop-color="#8d939b"/>
    <stop offset="0.64" stop-color="#f4f6f8"/>
    <stop offset="0.78" stop-color="#ffffff"/>
    <stop offset="0.9" stop-color="#a6acb4"/>
    <stop offset="1" stop-color="#6d727a"/>
  </linearGradient>
  <radialGradient id="spec" cx="0.34" cy="0.24" r="0.5">
    <stop offset="0" stop-color="#ffffff" stop-opacity="0.9"/>
    <stop offset="1" stop-color="#ffffff" stop-opacity="0"/>
  </radialGradient>
  <filter id="lift" x="-25%" y="-25%" width="150%" height="150%">
    <feDropShadow dx="0" dy="10" stdDeviation="14" flood-color="#181818" flood-opacity="0.35"/>
  </filter>
</defs>
  <g filter="url(#lift)">
    <g fill="url(#sheen)" stroke="#ffffff" stroke-opacity="0.55" stroke-width="3">
      <path d="M126 300c-38 0-66-28-66-68 0-58 44-110 108-136l20 40c-34 16-56 40-58 62 32 2 58 28 58 62 0 22-26 40-62 40Z"/>
      <path d="M330 300c-38 0-66-28-66-68 0-58 44-110 108-136l20 40c-34 16-56 40-58 62 32 2 58 28 58 62 0 22-26 40-62 40Z"/>
    </g>
  </g>
</svg>
